#!OML:ASF I:\Actors\actors\Patient Classification 2\Patient 1\Session 1\actor1.ASF
:FULLY-SPECIFIED
:DEGREES
300
root -0.955476 18.2673 5.75155 2.97359 2.15579 -3.9211
lowerback 10.8829 2.50395 4.23742
upperback 0.880876 3.87012 0.607063
thorax -4.93636 1.82381 -2.31672
lowerneck 1.74245 -14.5412 -11.537
upperneck -3.80899 -19.5166 10.7518
head 0.761224 -9.78764 4.56525
rclavicle -3.93469e-014 1.15047e-014
rhumerus 1.62818 31.4169 -70.4645
rradius 136.476
rwrist -41.4158
rhand 13.4332 -12.7294
rfingers 7.12502
rthumb 38.3749 -38.4257
lclavicle -3.93469e-014 1.15047e-014
lhumerus -45.7761 -24.0955 97.8503
lradius 92.7976
lwrist 14.2185
lhand -3.34888 -21.38
lfingers 7.12502
lthumb 22.3791 7.34373
rfemur 0 0 0
rtibia 0
rfoot 0 0
rtoes 0
lfemur 12.9021 -7.64826 -12.5989
ltibia -17.5942
lfoot -1.2906 17.7272
ltoes -11.093
301
root -0.959245 18.2673 5.75206 2.95412 2.27836 -3.97574
lowerback 11.0326 2.52486 4.40713
upperback 0.655821 3.93144 0.551748
thorax -5.23763 1.83793 -2.49395
lowerneck 1.35071 -14.3363 -11.6871
upperneck -2.07058 -19.2955 10.5344
head 1.30704 -9.66474 4.42658
rclavicle -1.5704e-014 -1.01629e-014
rhumerus -2.89753 32.8377 -72.6209
rradius 136.46
rwrist -39.8922
rhand 13.4832 -12.9341
rfingers 7.12502
rthumb 38.422 -38.6173
lclavicle -1.5704e-014 -1.01629e-014
lhumerus -45.3694 -24.5395 97.7199
lradius 92.7204
lwrist 14.603
lhand -2.70467 -21.077
lfingers 7.12502
lthumb 22.9974 7.57105
rfemur 0 0 0
rtibia 0
rfoot 0 0
rtoes 0
lfemur 12.9219 -7.61995 -12.5142
ltibia -17.656
lfoot -1.16886 17.6243
ltoes -11.4492
302
root -0.964305 18.2673 5.75173 2.88812 2.43767 -4.01248
lowerback 11.0642 2.5358 4.41184
upperback 0.496253 3.9558 0.579381
thorax -5.42368 1.84248 -2.47859
lowerneck 0.751788 -14.0318 -11.8353
upperneck 0.12674 -18.9399 10.1606
head 1.99382 -9.4696 4.22568
rclavicle 2.10588e-014 -2.78299e-015
rhumerus -7.91794 34.1736 -75.1262
rradius 135.935
rwrist -38.2921
rhand 13.4492 -13.4208
rfingers 7.12502
rthumb 38.3899 -39.1129
lclavicle 2.10588e-014 -2.78299e-015
lhumerus -44.5719 -25.0407 97.5599
lradius 92.4575
lwrist 14.6436
lhand -2.35801 -21.244
lfingers 7.12502
lthumb 23.33 7.36229
rfemur 0 0 0
rtibia 0
rfoot 0 0
rtoes 0
lfemur 12.9759 -7.50257 -12.4436
ltibia -17.7162
lfoot -1.01326 17.3917
ltoes -11.8171
303
root -0.969232 18.2656 5.74945 2.77293 2.6561 -3.98201
lowerback 10.9856 2.52518 4.24061
upperback 0.444042 3.92344 0.666357
thorax -5.45464 1.83049 -2.28489
lowerneck -0.269801 -13.6649 -11.8394
upperneck 2.84117 -18.4661 9.48709
head 2.85288 -9.20835 3.89085
rclavicle 5.82191e-014 -1.59773e-014
rhumerus -13.1225 35.2532 -77.7596
rradius 134.91
rwrist -37.2692
rhand 13.0794 -14.9843
rfingers 7.12502
rthumb 38.0409 -40.7723
lclavicle 5.82191e-014 -1.59773e-014
lhumerus -43.202 -25.5562 97.352
lradius 91.9301
lwrist 14.2114
lhand -2.25026 -22.004
lfingers 7.12502
lthumb 23.4333 6.58911
rfemur 0 0 0
rtibia 0
rfoot 0 0
rtoes 0
lfemur 13.0653 -7.48216 -12.4575
ltibia -17.7818
lfoot -0.879626 17.1459
ltoes -12.1603
304
root -0.972523 18.2621 5.74513 2.61845 2.96744 -3.92674
lowerback 10.8888 2.47971 4.05423
upperback 0.433799 3.84159 0.76741
thorax -5.43581 1.79677 -2.05859
lowerneck -1.46692 -13.1928 -11.7513
upperneck 5.78336 -17.8319 8.78565
head 3.79449 -8.86802 3.54455
rclavicle -1.83627e-014 1.38155e-014
rhumerus -18.4396 35.8722 -80.4466
rradius 133.419
rwrist -36.9869
rhand 12.6503 -17.7929
rfingers 7.12502
rthumb 37.6355 -43.6904
lclavicle -1.83627e-014 1.38155e-014
lhumerus -41.2615 -26.1477 97.0485
lradius 91.3715
lwrist 13.5413
lhand -1.87717 -22.6127
lfingers 7.12502
lthumb 23.7912 5.93428
rfemur 0 0 0
rtibia 0
rfoot 0 0
rtoes 0
lfemur 13.1733 -7.59069 -12.5053
ltibia -17.8562
lfoot -0.775992 16.9368
ltoes -12.5235
